<svg xmlns="http://www.w3.org/2000/svg" viewBox="0 0 800 1000">
  <defs>
    <filter id="soft" x="-40%" y="-40%" width="180%" height="180%">
      <feGaussianBlur stdDeviation="14"/>
    </filter>
  </defs>

  <rect width="800" height="1000" fill="#F6ECDC"/>
  <ellipse cx="400" cy="330" rx="330" ry="290" fill="#FFFFFF" opacity="0.28"/>

  <path d="M400 170 C 565 170 646 296 646 460 L646 1000 L154 1000 L154 460 C154 296 235 170 400 170 Z" fill="#BF5B2D" opacity="0.07"/>
  <path d="M400 205 C 545 205 614 316 614 460" fill="none" stroke="#BF5B2D" stroke-opacity="0.22" stroke-width="1.5"/>

  <ellipse cx="400" cy="800" rx="180" ry="20" fill="#33291F" opacity="0.16" filter="url(#soft)"/>

  
    <path d="M232 620 C 322 540 302 462 402 442 C 522 417 562 522 522 682" stroke="#BF5B2D" stroke-width="56" fill="none" stroke-linecap="round"/>
    <path d="M272 668 C 352 594 342 520 432 500 C 547 476 582 570 548 712" stroke="#D9A982" stroke-width="44" fill="none" stroke-linecap="round" opacity="0.92"/>
    <path d="M252 660 l-8 44 M276 672 l-4 44 M300 678 l0 44 M545 700 l8 40 M566 692 l10 40" stroke="#A34A22" stroke-width="5" stroke-linecap="round"/>
  

  <rect x="30" y="30" width="740" height="940" fill="none" stroke="#C9B28E" stroke-width="1.5"/>
  <path d="M30 70 L30 30 L70 30 M730 30 L770 30 L770 70 M770 930 L770 970 L730 970 M70 970 L30 970 L30 930" fill="none" stroke="#BF5B2D" stroke-width="2.5"/>

  <text x="400" y="928" text-anchor="middle" font-family="Georgia, 'Times New Roman', serif" font-size="19" letter-spacing="7" fill="#8A7A66">RETAILFLOW &#183; DEMO CATALOG</text>
  <text x="64" y="76" font-family="Georgia, serif" font-size="15" letter-spacing="4" fill="#A3927A">N&#186; 13</text>
  <text x="736" y="76" text-anchor="end" font-family="Georgia, serif" font-size="15" letter-spacing="3" fill="#A3927A">SILK CHIFFON DUPATTA</text>
</svg>
