<svg xmlns="http://www.w3.org/2000/svg" viewBox="0 0 64 64" width="64" height="64" role="img" aria-label="Marigold &amp; Clay">
  <defs>
    <radialGradient id="f-petal" cx="50%" cy="36%" r="68%">
      <stop offset="0%" stop-color="#F5C68C"/>
      <stop offset="52%" stop-color="#DD7A33"/>
      <stop offset="100%" stop-color="#A94A22"/>
    </radialGradient>
    <radialGradient id="f-core" cx="50%" cy="42%" r="62%">
      <stop offset="0%" stop-color="#FCF3E1"/>
      <stop offset="100%" stop-color="#EBCFA1"/>
    </radialGradient>
  </defs>
  <rect width="64" height="64" rx="15" fill="#FAF5EA"/>
  <g transform="translate(8 8) scale(1)">
    <g fill="url(#f-petal)">
      <ellipse cx="24" cy="9.6" rx="4.5" ry="8.6"/>
      <ellipse cx="24" cy="9.6" rx="4.5" ry="8.6" transform="rotate(30 24 24)"/>
      <ellipse cx="24" cy="9.6" rx="4.5" ry="8.6" transform="rotate(60 24 24)"/>
      <ellipse cx="24" cy="9.6" rx="4.5" ry="8.6" transform="rotate(90 24 24)"/>
      <ellipse cx="24" cy="9.6" rx="4.5" ry="8.6" transform="rotate(120 24 24)"/>
      <ellipse cx="24" cy="9.6" rx="4.5" ry="8.6" transform="rotate(150 24 24)"/>
      <ellipse cx="24" cy="9.6" rx="4.5" ry="8.6" transform="rotate(180 24 24)"/>
      <ellipse cx="24" cy="9.6" rx="4.5" ry="8.6" transform="rotate(210 24 24)"/>
      <ellipse cx="24" cy="9.6" rx="4.5" ry="8.6" transform="rotate(240 24 24)"/>
      <ellipse cx="24" cy="9.6" rx="4.5" ry="8.6" transform="rotate(270 24 24)"/>
      <ellipse cx="24" cy="9.6" rx="4.5" ry="8.6" transform="rotate(300 24 24)"/>
      <ellipse cx="24" cy="9.6" rx="4.5" ry="8.6" transform="rotate(330 24 24)"/>
    </g>
    <g fill="#C25A2C" opacity="0.95">
      <ellipse cx="24" cy="16" rx="3.3" ry="6.2" transform="rotate(20 24 24)"/>
      <ellipse cx="24" cy="16" rx="3.3" ry="6.2" transform="rotate(60 24 24)"/>
      <ellipse cx="24" cy="16" rx="3.3" ry="6.2" transform="rotate(100 24 24)"/>
      <ellipse cx="24" cy="16" rx="3.3" ry="6.2" transform="rotate(140 24 24)"/>
      <ellipse cx="24" cy="16" rx="3.3" ry="6.2" transform="rotate(180 24 24)"/>
      <ellipse cx="24" cy="16" rx="3.3" ry="6.2" transform="rotate(220 24 24)"/>
      <ellipse cx="24" cy="16" rx="3.3" ry="6.2" transform="rotate(260 24 24)"/>
      <ellipse cx="24" cy="16" rx="3.3" ry="6.2" transform="rotate(300 24 24)"/>
      <ellipse cx="24" cy="16" rx="3.3" ry="6.2" transform="rotate(340 24 24)"/>
    </g>
    <circle cx="24" cy="24" r="6.2" fill="url(#f-core)"/>
    <circle cx="24" cy="24" r="2.3" fill="#8C4423"/>
  </g>
</svg>
